<?xml version="1.0" standalone="no"?><!DOCTYPE svg PUBLIC "-//W3C//DTD SVG 1.1//EN" "http://www.w3.org/Graphics/SVG/1.1/DTD/svg11.dtd"><svg t="1614861012718" class="icon" viewBox="0 0 1024 1024" version="1.1" xmlns="http://www.w3.org/2000/svg" p-id="1260" xmlns:xlink="http://www.w3.org/1999/xlink" width="200" height="200"><defs><style type="text/css"></style></defs><path d="M688.6 131.3l-615 233.8c-7.8 3-12.9 10.4-12.9 18.7V776c0 11 9 20 20 20H475c4.5 0 8.9-1.5 12.4-4.3L955.7 420c4.8-3.8 7.6-9.6 7.6-15.7V150c0-11-9-20-20-20H695.7c-2.5 0-4.9 0.4-7.1 1.3zM422 746.4H130c-11 0-20-9-20-20V431c0-11 9-20 20-20h292c11 0 20 9 20 20v295.4c0 11-9 20-20 20z" p-id="1261"></path><path d="M276.1 682.9c57.4 0.5 104.1-46.2 103.6-103.6-0.5-55.8-46-101.3-101.8-101.8-57.4-0.5-104.1 46.2-103.6 103.6 0.5 55.8 46 101.3 101.8 101.8z m-1.3-171.6c39.9-1.3 72.4 31.2 71.1 71.1-1.1 36.1-30.5 65.5-66.6 66.6-39.9 1.3-72.4-31.2-71.1-71.1 1.1-36 30.5-65.4 66.6-66.6zM880 804h-80c-11 0-20-9-20-20V654.7c0-16.8-19.4-26.1-32.5-15.6l-72 57.9c-4.7 3.8-7.5 9.5-7.5 15.6V876h1v12c0 11 9 20 20 20h191c11 0 20 9 20 20v14c0 11 9 20 20 20h42V750h-42c-11 0-20 9-20 20v14c0 11-9 20-20 20z" p-id="1262"></path><path d="M273.4 617c22.4 1.8 40.9-16.8 39.2-39.2-1.4-17.7-15.5-31.9-33.3-33.3-22.4-1.8-40.9 16.8-39.2 39.2 1.5 17.8 15.6 31.9 33.3 33.3z" p-id="1263"></path></svg>