<?xml version="1.0" standalone="no"?><!DOCTYPE svg PUBLIC "-//W3C//DTD SVG 1.1//EN" "http://www.w3.org/Graphics/SVG/1.1/DTD/svg11.dtd"><svg t="1614861038769" class="icon" viewBox="0 0 1024 1024" version="1.1" xmlns="http://www.w3.org/2000/svg" p-id="2163" xmlns:xlink="http://www.w3.org/1999/xlink" width="200" height="200"><defs><style type="text/css"></style></defs><path d="M675.9424 164.2496a172.97408 172.97408 0 0 1 7.8848 66.56c-0.2048 12.4928-7.3728 70.3488-5.4272 88.064 1.536 14.6432 5.2224 15.7696 10.9568 27.8528 10.0352 20.8896 6.656 49.8688 2.8672 70.9632a105.10336 105.10336 0 0 1-13.312 37.4784c-7.4752 10.3424-22.4256 10.4448-29.0816 22.6304-9.4208 17.408-4.096 41.984-10.1376 60.8256-6.7584 21.4016-24.064 22.9376-25.3952 50.9952 8.4992 1.1264 16.9984 2.3552 25.3952 3.584 8.6016 18.1248 24.1664 54.5792 40.0384 65.536 13.312 3.584 26.7264 7.2704 40.0384 10.8544 46.6944 19.1488 98.6112 42.0864 145.5104 61.8496 42.5984 18.0224 93.696 24.3712 109.056 69.12 0 30.4128 2.8672 102.0928 2.048 141.9264H47.5136c-0.7168-39.8336 2.1504-111.5136 2.1504-141.9264 15.36-44.7488 66.4576-51.0976 109.056-69.12 46.7968-19.7632 98.7136-42.7008 145.5104-61.8496 13.312-3.584 26.624-7.2704 39.936-10.8544 15.9744-10.9568 31.5392-47.4112 40.0384-65.536l18.944-4.608c-4.3008-23.8592-19.0464-25.7024-25.2928-42.7008q-3.5328-38.0928-7.2704-76.3904a65.78176 65.78176 0 0 1-19.6608-4.608c-24.6784-15.4624-25.1904-78.336-27.5456-104.448-1.1264-11.9808 15.4624-21.8112 10.8544-43.7248C307.2 188.416 345.9072 128.4096 407.2448 108.4416c42.5984-17.2032 122.0608-49.152 196.096-3.584l18.432 16.9984 29.7984 5.12c14.848 8.704 24.3712 37.2736 24.3712 37.2736z" p-id="2164"></path></svg>