<?xml version="1.0" standalone="no"?><!DOCTYPE svg PUBLIC "-//W3C//DTD SVG 1.1//EN" "http://www.w3.org/Graphics/SVG/1.1/DTD/svg11.dtd"><svg t="1614861121488" class="icon" viewBox="0 0 1024 1024" version="1.1" xmlns="http://www.w3.org/2000/svg" p-id="2389" xmlns:xlink="http://www.w3.org/1999/xlink" width="200" height="200"><defs><style type="text/css"></style></defs><path d="M128 512c0-212.08 171.92-384 384-384s384 171.92 384 384-171.92 384-384 384c-211.98-0.24-383.76-172.02-384-384z m59.05 0c0 179.46 145.48 324.95 324.95 324.95S836.95 691.46 836.95 512 691.46 187.05 512 187.05c-179.39 0.19-324.76 145.56-324.95 324.95z m226.48 77.95v-155.9c0-23.56 19.1-42.67 42.66-42.67 7.11 0 14.11 1.78 20.36 5.17l143.62 77.95c20.72 11.21 28.43 37.11 17.22 57.83a42.676 42.676 0 0 1-17.22 17.22l-143.62 77.91c-20.71 11.24-46.61 3.56-57.85-17.15a42.484 42.484 0 0 1-5.17-20.36z" p-id="2390"></path></svg>